HIERARCHY
ROOT hip
{
  OFFSET 0 0 0
  CHANNELS 6 Xposition Yposition Zposition Zrotation Yrotation Xrotation
  JOINT abdomen
  {
    OFFSET 0 20.6881 -0.73152
    CHANNELS 3 Zrotation Xrotation Yrotation
    JOINT chest
    {
      OFFSET 0 11.7043 -0.48768
      CHANNELS 3 Zrotation Xrotation Yrotation
      JOINT neck
      {
        OFFSET 0 22.1894 -2.19456
        CHANNELS 3 Zrotation Xrotation Yrotation
        JOINT head
        {
          OFFSET -0.24384 7.07133 1.2192
          CHANNELS 3 Zrotation Xrotation Yrotation
          JOINT leftEye
          {
            OFFSET 4.14528 8.04674 8.04672
            CHANNELS 3 Zrotation Xrotation Yrotation
            End Site
            {
              OFFSET 1 0 0
            }
          }
          JOINT rightEye
          {
            OFFSET -3.6576 8.04674 8.04672
            CHANNELS 3 Zrotation Xrotation Yrotation
            End Site
            {
              OFFSET 1 0 0
            }
          }
        }
      }
      JOINT rCollar
      {
        OFFSET -2.68224 19.2634 -4.8768
        CHANNELS 3 Zrotation Xrotation Yrotation
        JOINT rShldr
        {
          OFFSET -8.77824 -1.95073 1.46304
          CHANNELS 3 Zrotation Xrotation Yrotation
          JOINT rForeArm
          {
            OFFSET -28.1742 -1.7115 0.48768
            CHANNELS 3 Zrotation Xrotation Yrotation
            JOINT rHand
            {
              OFFSET -22.5879 0.773209 7.07136
              CHANNELS 3 Zrotation Xrotation Yrotation
              JOINT rThumb1
              {
                OFFSET -1.2192 -0.487915 3.41376
                CHANNELS 3 Zrotation Xrotation Yrotation
                JOINT rThumb2
                {
                  OFFSET -3.37035 -0.52449 3.41376
                  CHANNELS 3 Zrotation Xrotation Yrotation
                  End Site
                  {
                    OFFSET -1.78271 -1.18214 1.43049
                  }
                }
              }
              JOINT rIndex1
              {
                OFFSET -7.75947 0.938293 5.60832
                CHANNELS 3 Zrotation Xrotation Yrotation
                JOINT rIndex2
                {
                  OFFSET -2.54057 -0.884171 1.56538
                  CHANNELS 3 Zrotation Xrotation Yrotation
                  End Site
                  {
                    OFFSET -1.62519 -0.234802 1.16502
                  }
                }
              }
              JOINT rMid1
              {
                OFFSET -8.24714 1.18213 3.41376
                CHANNELS 3 Zrotation Xrotation Yrotation
                JOINT rMid2
                {
                  OFFSET -3.10165 -0.590103 1.0647
                  CHANNELS 3 Zrotation Xrotation Yrotation
                  End Site
                  {
                    OFFSET -2.48547 -0.328903 0.83742
                  }
                }
              }
              JOINT rRing1
              {
                OFFSET -8.82822 0.546677 1.51678
                CHANNELS 3 Zrotation Xrotation Yrotation
                JOINT rRing2
                {
                  OFFSET -2.60934 -0.819778 -0.0198488
                  CHANNELS 3 Zrotation Xrotation Yrotation
                  End Site
                  {
                    OFFSET -2.33842 -0.294052 0.168128
                  }
                }
              }
              JOINT rPinky1
              {
                OFFSET -8.27202 -0.0477905 -0.4584
                CHANNELS 3 Zrotation Xrotation Yrotation
                JOINT rPinky2
                {
                  OFFSET -1.82734 -0.647385 -0.700984
                  CHANNELS 3 Zrotation Xrotation Yrotation
                  End Site
                  {
                    OFFSET -1.69225 -0.51767 -0.607171
                  }
                }
              }
            }
          }
        }
      }
      JOINT lCollar
      {
        OFFSET 2.68224 19.2634 -4.8768
        CHANNELS 3 Zrotation Xrotation Yrotation
        JOINT lShldr
        {
          OFFSET 8.77824 -1.95073 1.46304
          CHANNELS 3 Zrotation Xrotation Yrotation
          JOINT lForeArm
          {
            OFFSET 28.1742 -1.7115 0.48768
            CHANNELS 3 Zrotation Xrotation Yrotation
            JOINT lHand
            {
              OFFSET 22.5879 0.773209 7.07136
              CHANNELS 3 Zrotation Xrotation Yrotation
              JOINT lThumb1
              {
                OFFSET 1.2192 -0.487915 3.41376
                CHANNELS 3 Zrotation Xrotation Yrotation
                JOINT lThumb2
                {
                  OFFSET 3.37035 -0.52449 3.41376
                  CHANNELS 3 Zrotation Xrotation Yrotation
                  End Site
                  {
                    OFFSET 1.78271 -1.18214 1.43049
                  }
                }
              }
              JOINT lIndex1
              {
                OFFSET 7.75947 0.938293 5.60832
                CHANNELS 3 Zrotation Xrotation Yrotation
                JOINT lIndex2
                {
                  OFFSET 2.54057 -0.884171 1.56538
                  CHANNELS 3 Zrotation Xrotation Yrotation
                  End Site
                  {
                    OFFSET 1.62519 -0.234802 1.16502
                  }
                }
              }
              JOINT lMid1
              {
                OFFSET 8.24714 1.18213 3.41376
                CHANNELS 3 Zrotation Xrotation Yrotation
                JOINT lMid2
                {
                  OFFSET 3.10165 -0.590103 1.0647
                  CHANNELS 3 Zrotation Xrotation Yrotation
                  End Site
                  {
                    OFFSET 2.48547 -0.328903 0.83742
                  }
                }
              }
              JOINT lRing1
              {
                OFFSET 8.82822 0.546677 1.51678
                CHANNELS 3 Zrotation Xrotation Yrotation
                JOINT lRing2
                {
                  OFFSET 2.60934 -0.819778 -0.0198488
                  CHANNELS 3 Zrotation Xrotation Yrotation
                  End Site
                  {
                    OFFSET 2.33842 -0.294052 0.168128
                  }
                }
              }
              JOINT lPinky1
              {
                OFFSET 8.27202 -0.0477905 -0.4584
                CHANNELS 3 Zrotation Xrotation Yrotation
                JOINT lPinky2
                {
                  OFFSET 1.82734 -0.647385 -0.700984
                  CHANNELS 3 Zrotation Xrotation Yrotation
                  End Site
                  {
                    OFFSET 1.69225 -0.51767 -0.607171
                  }
                }
              }
            }
          }
        }
      }
    }
  }
  JOINT rButtock
  {
    OFFSET -8.77824 4.35084 1.2192
    CHANNELS 3 Zrotation Xrotation Yrotation
    JOINT rThigh
    {
      OFFSET 0 -1.70687 -2.19456
      CHANNELS 3 Zrotation Xrotation Yrotation
      JOINT rShin
      {
        OFFSET 0 -36.8199 0.73152
        CHANNELS 3 Zrotation Xrotation Yrotation
        JOINT rFoot
        {
          OFFSET 0.73152 -45.1104 -5.12064
          CHANNELS 3 Zrotation Xrotation Yrotation
          End Site
          {
            OFFSET -1.1221 -3.69964 12.103
          }
        }
      }
    }
  }
  JOINT lButtock
  {
    OFFSET 8.77824 4.35084 1.2192
    CHANNELS 3 Zrotation Xrotation Yrotation
    JOINT lThigh
    {
      OFFSET 0 -1.70687 -2.19456
      CHANNELS 3 Zrotation Xrotation Yrotation
      JOINT lShin
      {
        OFFSET 0 -36.8199 0.73152
        CHANNELS 3 Zrotation Xrotation Yrotation
        JOINT lFoot
        {
          OFFSET -0.73152 -45.1104 -5.12064
          CHANNELS 3 Zrotation Xrotation Yrotation
          End Site
          {
            OFFSET 1.1221 -3.69964 12.103
          }
        }
      }
    }
  }
}
MOTION
Frames:	5
Frame Time:	0.03333
0.0 0.0 0.0 0.0 0.0 0.0 0.0 0.0 0.0 0.0 0.0 0.0 0.0 0.0 0.0 0.0 0.0 0.0 0.0 0.0 0.0 0.0 0.0 0.0 0.0 0.0 0.0 0.0 0.0 0.0 0.0 0.0 0.0 0.0 0.0 0.0 0.0 0.0 0.0 0.0 0.0 0.0 0.0 0.0 0.0 0.0 0.0 0.0 0.0 0.0 0.0 0.0 0.0 0.0 0.0 0.0 0.0 0.0 0.0 0.0 0.0 0.0 0.0 0.0 0.0 0.0 0.0 0.0 0.0 0.0 0.0 0.0 0.0 0.0 0.0 0.0 0.0 0.0 0.0 0.0 0.0 0.0 0.0 0.0 0.0 0.0 0.0 0.0 0.0 0.0 0.0 0.0 0.0 0.0 0.0 0.0 0.0 0.0 0.0 0.0 0.0 0.0 0.0 0.0 0.0 0.0 0.0 0.0 0.0 0.0 0.0 0.0 0.0 0.0 0.0 0.0 0.0 0.0 0.0 0.0 0.0 0.0 0.0 0.0 0.0 0.0 0.0 0.0 0.0 0.0 0.0 0.0
-0.11429999999999998 60.351299999999995 0.0286 171.926025 20.237156 176.787658 -15.292037 11.575825 180.0 -4.905226 6.203858 176.267307 -13.06926 30.334687 -107.108848 36.59899 21.003284 71.750767 0.003242 0.0 0.000981 0.003242 0.0 0.000981 -147.864846 28.559594 152.689337 -147.387085 47.717733 106.420068 -130.105759 86.588187 -177.4943 -7.849739 32.425905 2.153296 -94.792439 37.828168 54.283049 -124.680629 -16.261885 75.120908 88.791803 -75.4996 40.049284 -176.436422 -44.106748 109.588278 -0.287034 0.832691 0.16018 -42.067004 58.558916 36.102318 -0.014691 -1.323203 -0.415545 10.300734 1.867947 0.167664 12.98696 44.344522 10.76209 -148.652861 13.368399 -143.748366 0.273236 1.606861 -0.360417 91.297689 15.400387 -165.953278 -88.725594 44.214825 124.232418 174.778676 34.905078 -145.866548 0.544079 0.536133 -0.086375 -5.353101 -6.973736 3.92677 81.656477 42.620157 -68.125587 6.291292 18.688683 -0.01774 11.03361 25.891499 -7.685978 4.633336 20.812024 -4.280445 72.133398 72.975498 -89.989207 -4.977354 29.722782 0.422963 -0.463828 1.226756 -0.428421 120.765237 -38.042638 119.436847 -0.0 -0.000901 -0.00043 -57.22987 -53.196345 -62.732474 -33.539059 76.893383 173.912879 -133.218846 -14.146005 144.779151 -179.889814 75.74892 -0.084925 -108.970728 79.389435 -70.522124 -19.167511 47.701094 -121.525415 116.468469 4.63303 157.712515
-0.1323 60.6618 0.027700000000000002 172.266156 20.217385 177.262915 -12.812773 12.140841 -132.761191 3.251801 6.920269 128.028883 3.418082 33.104188 152.79357 -16.717578 40.657892 -178.100408 -0.00177 0.0 -0.006261 -0.000814 -0.0 0.001656 -0.048765 0.292535 0.063907 58.951659 25.819022 2.479019 70.991138 -27.514711 81.2384 -117.745905 75.780986 99.019073 -153.678905 8.238724 87.337771 89.114623 -58.275787 62.648926 -152.46555 -19.226326 121.472952 -30.271399 49.385301 17.933124 -160.826704 -7.141906 143.315658 -163.780098 -6.246364 143.111632 -145.099431 -1.522396 -178.650589 12.257453 44.867386 -3.837965 -81.324899 -51.181329 -79.740419 2.379312 -2.688116 -1.82906 142.313982 40.592279 -146.687395 177.199652 41.338105 -111.916139 8.577765 82.586747 -43.667506 7.501554 30.850467 -1.935474 2.608215 2.554624 -0.457823 59.334113 27.667126 -54.835751 138.494109 4.896337 -114.864457 -95.112002 -70.106322 -44.154375 125.645055 49.840493 -115.274594 -80.90441 -77.730519 -52.275087 -0.004724 1.770113 -0.558386 -10.966882 -13.797373 1.71641 149.547609 27.153202 145.547482 -46.130004 80.044745 10.083839 -0.001145 -8e-06 -0.001717 -59.617792 -52.839937 46.979996 81.852671 -10.043015 94.492613 -150.748997 19.194194 177.82393 -0.0 -8e-06 -0.000827 10.260007 10.34934 -1.659917 -19.615429 44.60361 -96.554445 29.211921 24.275028 138.285035
-0.1889 60.96169999999999 0.019200000000000002 172.615389 20.394099 177.458092 -11.880298 12.786522 -114.697627 6.066046 5.36972 109.733387 -14.38224 27.080307 -88.195409 37.491839 10.504837 56.466233 0.000113 -0.0 -0.000894 0.000836 0.0 0.003761 -158.514058 -30.701919 167.03942 -39.035231 -2.960084 -12.070802 -177.712951 21.388691 -131.975997 -9.038878 35.551598 2.585154 4.472964 -4.456 -0.517262 -131.62833 -27.366949 117.465024 -27.420954 30.639299 20.099057 -51.042025 46.763444 35.289362 -89.836402 60.701087 81.262029 -13.326342 36.377315 10.881748 -0.003109 -0.060773 -0.01952 10.779421 -6.942563 -0.91285 -140.39116 -1.53062 -137.472836 -137.267778 -12.792855 -133.879402 143.190669 39.036023 -147.62071 67.130718 7.127586 -38.953878 -172.54844 7.441281 148.572142 13.885075 45.666035 -4.822753 12.30476 11.515316 -3.094635 4.969831 5.715674 -11.281398 131.826528 14.060276 -110.410532 4.114036 21.271573 3.416458 -89.034495 -81.394292 -59.759622 163.198588 -3.917435 -143.060133 145.09987 -1.60499 178.623603 76.0326 -77.982121 97.692614 8.19165 -17.575746 7.729554 -5.778589 8.746525 -2.396906 -0.000129 0.000451 0.000166 -55.868914 -52.761848 -50.246906 20.208305 72.257687 76.854561 -36.329222 63.84063 -37.125599 -0.0 -0.000801 -0.000643 10.209703 10.364718 -0.0 -17.453067 46.816061 -116.879441 25.84061 31.095446 155.490283
-0.2497 61.163999999999994 0.0164 172.55718 20.535232 177.547313 -14.07478 16.057506 0.0 4.749751 -11.037613 -3.728457 -14.386412 23.951817 -71.066167 35.582105 0.698723 42.439442 -0.004064 -0.0 4.5e-05 -0.004064 -0.0 4.5e-05 -149.905103 22.421996 154.975941 -51.778693 16.081275 32.993353 -174.804395 9.149864 -132.981881 -7.80344 32.237201 2.128097 -5.43358 5.265042 1.077407 -159.102071 -66.56173 112.89927 0.746449 -1.220972 -0.41576 -177.703106 -34.389602 106.362687 -82.841069 61.110708 74.532071 -88.543768 63.894407 80.467456 -0.000422 0.063511 0.021346 -156.484164 -25.092054 174.7907 -145.172256 12.068245 -141.822137 8.389381 17.004227 2.336545 155.417656 -2.951731 -161.717558 57.851407 17.238036 2.339763 -12.372045 -16.546244 62.495205 -165.67031 -22.050207 -143.596339 -12.71323 -12.674132 0.553894 -14.445626 -37.866762 21.915513 26.82872 30.232082 -19.60503 -7.695683 0.307763 1.375031 36.036355 51.723382 -29.83143 153.883748 19.993905 -138.635914 0.000835 -0.018502 0.005863 -10.308935 0.334027 0.024444 157.335 57.246137 150.509484 -15.210308 41.783691 -6.325959 -0.003412 0.001574 -0.0 -56.365592 -54.523787 -156.004205 -67.311118 -16.041173 93.961787 -23.090643 -4.679406 24.151093 179.984753 75.749056 0.012545 -110.576035 79.331453 -68.892767 -18.818401 47.093067 -124.957885 -84.488055 20.970667 -164.954346
